
<svg aria-hidden="true" style="position:absolute; width:0;high:0;owerfol:hidden" xmlns="http://www.w3.org/2000/svg">
<defs>
<!--Phone-->
<symbol id="icon-phone" viewBox="0 0 32 32">
<path d="M25.994 20.969c-0.913-0.938-3.506-2.694-5.206-2.694-0.394 0-0.738 0.087-1.019 0.269-0.831 0.531-1.494 0.944-1.813 0.944-0.175 0-0.363-0.156-0.775-0.512l-0.069-0.063c-1.144-0.994-1.387-1.25-1.831-1.712l-0.113-0.119c-0.081-0.081-0.15-0.156-0.219-0.225-0.387-0.4-0.669-0.688-1.662-1.813l-0.044-0.050c-0.475-0.537-0.787-0.887-0.806-1.144-0.019-0.25 0.2-0.656 0.756-1.412 0.675-0.912 0.7-2.037 0.081-3.344-0.494-1.031-1.3-2.019-2.013-2.888l-0.063-0.075c-0.613-0.75-1.325-1.125-2.119-1.125-0.881 0-1.612 0.475-2 0.725-0.031 0.019-0.063 0.044-0.094 0.063-0.869 0.55-1.5 1.306-1.737 2.075-0.356 1.156-0.594 2.656 1.112 5.775 1.475 2.7 2.813 4.512 4.938 6.694 2 2.050 2.888 2.712 4.875 4.15 2.212 1.6 4.337 2.519 5.825 2.519 1.381 0 2.469 0 4.019-1.869 1.625-1.962 0.95-3.163-0.025-4.169zM25.275 24.462c-1.25 1.512-1.969 1.512-3.269 1.512-1.269 0-3.238-0.875-5.262-2.331-1.938-1.4-2.8-2.044-4.744-4.038-2.056-2.106-3.35-3.863-4.775-6.469-1.506-2.756-1.338-3.963-1.031-4.956 0.162-0.531 0.65-1.1 1.313-1.513 0.031-0.019 0.063-0.044 0.1-0.063 0.331-0.213 0.881-0.569 1.481-0.569 0.5 0 0.944 0.25 1.369 0.769l0.063 0.075c1.594 1.95 2.838 3.675 1.9 4.95-0.662 0.894-1.012 1.5-0.956 2.125 0.050 0.606 0.456 1.063 1.069 1.75l0.044 0.050c1.006 1.138 1.294 1.437 1.694 1.844 0.069 0.069 0.137 0.144 0.219 0.225l0.113 0.119c0.463 0.481 0.719 0.744 1.894 1.775l0.069 0.063c0.5 0.438 0.869 0.756 1.406 0.756 0.556 0 1.169-0.35 2.331-1.094 0.119-0.075 0.288-0.119 0.5-0.119 1.356 0 3.694 1.55 4.512 2.394 0.75 0.762 1.125 1.337-0.038 2.744z"></path>
</symbol>
<!--Email-->
<symbol id="icon-email" viewBox="0 0 32 32">
<path d="M28 26.25h-24c-1.378 0-2.5-1.122-2.5-2.5v-16.25c0-1.378 1.122-2.5 2.5-2.5h24c1.378 0 2.5 1.122 2.5 2.5v16.25c0 1.378-1.122 2.5-2.5 2.5zM4 6c-0.827 0-1.5 0.673-1.5 1.5v16.25c0 0.827 0.673 1.5 1.5 1.5h24c0.827 0 1.5-0.673 1.5-1.5v-16.25c0-0.827-0.673-1.5-1.5-1.5h-24z"></path>
<path d="M16 16.26c-0.324-0-0.624-0.103-0.869-0.278l0.005 0.003-13.135-7.551c-0.151-0.088-0.251-0.249-0.251-0.434 0-0.092 0.025-0.178 0.068-0.252l-0.001 0.002c0.088-0.151 0.249-0.25 0.434-0.25 0.092 0 0.177 0.025 0.251 0.067l-0.002-0.001 13.204 7.595c0.082 0.061 0.185 0.098 0.297 0.098s0.215-0.037 0.298-0.099l-0.001 0.001 0.047-0.031 13.157-7.564c0.069-0.038 0.15-0.060 0.237-0.060 0.276 0 0.5 0.224 0.5 0.5 0 0.179-0.095 0.337-0.237 0.425l-0.002 0.001-13.135 7.551c-0.24 0.172-0.54 0.275-0.864 0.275h-0z"></path>
</symbol>
<!--World-->
<symbol id="icon-world" viewBox="0 0 32 32">
<path d="M16 29.53c-7.472 0-13.53-6.058-13.53-13.53s6.058-13.53 13.53-13.53c7.472 0 13.53 6.058 13.53 13.53v0c-0.009 7.469-6.061 13.521-13.529 13.53h-0.001zM16 3.47c-6.92 0-12.53 5.61-12.53 12.53s5.61 12.53 12.53 12.53c6.92 0 12.53-5.61 12.53-12.53v0c-0.009-6.917-5.613-12.521-12.529-12.53h-0.001z"></path>
<path d="M16 29.53c-0.001 0-0.001 0-0.002 0-0.11 0-0.212-0.036-0.295-0.096l0.001 0.001c-0.7-0.5-6.84-5.2-6.85-13.415s6.145-12.945 6.85-13.455c0.082-0.060 0.184-0.096 0.295-0.096 0.277 0 0.501 0.224 0.501 0.501 0 0.166-0.081 0.313-0.205 0.404l-0.001 0.001c-0.66 0.5-6.445 4.9-6.44 12.645s5.78 12.125 6.44 12.605c0.126 0.092 0.206 0.239 0.206 0.405 0 0.111-0.036 0.214-0.097 0.297l0.001-0.001c-0.092 0.125-0.238 0.205-0.404 0.205-0 0-0.001 0-0.001 0h0z"></path>
<path d="M16 29.53c-0 0-0.001 0-0.001 0-0.165 0-0.312-0.080-0.403-0.204l-0.001-0.001c-0.060-0.082-0.096-0.184-0.096-0.295 0-0.166 0.081-0.313 0.205-0.404l0.001-0.001c0.66-0.5 6.43-4.885 6.44-12.605s-5.78-12.165-6.44-12.645c-0.126-0.092-0.206-0.239-0.206-0.405 0-0.277 0.224-0.501 0.501-0.501 0.111 0 0.213 0.036 0.296 0.097l-0.001-0.001c0.705 0.51 6.855 5.22 6.85 13.435s-6.145 12.925-6.85 13.435c-0.081 0.059-0.183 0.095-0.293 0.095-0.001 0-0.001 0-0.002 0h0z"></path>
<path d="M28.155 11.795h-24.31c-0.276 0-0.5-0.224-0.5-0.5s0.224-0.5 0.5-0.5v0h24.31c0.276 0 0.5 0.224 0.5 0.5s-0.224 0.5-0.5 0.5v0zM28.15 21.165h-24.32c-0.276 0-0.5-0.224-0.5-0.5s0.224-0.5 0.5-0.5v0h24.32c0.276 0 0.5 0.224 0.5 0.5s-0.224 0.5-0.5 0.5v0z"></path>
<path d="M16 29.53c-0.276 0-0.5-0.224-0.5-0.5v0-26.060c0-0.276 0.224-0.5 0.5-0.5s0.5 0.224 0.5 0.5v0 26.060c0 0.276-0.224 0.5-0.5 0.5v0z"></path>
</symbol>
<!--Location-->
<symbol id="icon-location" viewBox="0 0 32 32">
<path d="M16.029 30.854c-0 0-0 0-0 0-0.176-0-0.336-0.103-0.409-0.263-0.394-0.862-1.136-2.354-1.997-4.081-3.617-7.261-6.864-13.951-6.864-16.036 0-5.112 4.159-9.27 9.27-9.27s9.27 4.159 9.27 9.27c0 2.090-3.255 8.797-6.882 16.075-0.852 1.71-1.587 3.186-1.979 4.042-0.073 0.16-0.233 0.263-0.409 0.263zM16.029 2.104c-4.615 0-8.37 3.755-8.37 8.37 0 2.046 4.237 10.552 6.769 15.635 0.624 1.252 1.186 2.381 1.601 3.241 0.411-0.852 0.966-1.966 1.582-3.202 2.539-5.095 6.788-13.622 6.788-15.674-0-4.615-3.755-8.37-8.37-8.37z"></path>
<path d="M16.029 15.729c-2.898 0-5.255-2.357-5.255-5.255 0-2.899 2.357-5.258 5.255-5.258 2.899 0 5.258 2.359 5.258 5.258 0 2.898-2.359 5.255-5.258 5.255zM16.029 6.116c-2.401 0-4.355 1.955-4.355 4.358 0 2.401 1.954 4.355 4.355 4.355 2.403 0 4.358-1.954 4.358-4.355 0-2.403-1.955-4.358-4.358-4.358z"></path>
</symbol>

</defs>
</svg>